<?xml version="1.0" encoding="UTF-8" standalone="no"?>
<svg width="80px" height="40px" viewBox="0 0 80 40" version="1.1" xmlns="http://www.w3.org/2000/svg" xmlns:xlink="http://www.w3.org/1999/xlink" xmlns:sketch="http://www.bohemiancoding.com/sketch/ns">
    <!-- Generator: Sketch 3.3.2 (12043) - http://www.bohemiancoding.com/sketch -->
    <title>noun_67109_cc</title>
    <desc>Created with Sketch.</desc>
    <defs></defs>
    <g id="Page-1" stroke="none" stroke-width="1" fill="none" fill-rule="evenodd" sketch:type="MSPage">
        <g id="City-description-page" sketch:type="MSArtboardGroup" transform="translate(-19.000000, -699.000000)" fill="#1FB6C9">
            <g id="noun_67109_cc" sketch:type="MSLayerGroup" transform="translate(19.000000, 699.000000)">
                <path d="M48.7048,23.7616 C48.5864,19.0632 44.7264,15.2784 40.0008,15.2784 C35.2,15.2784 31.2936,19.1848 31.2936,23.9864 C31.2936,24.72 31.888,25.3144 32.6216,25.3144 L47.3792,25.3144 L47.3952,25.3144 C48.1288,25.3144 48.724,24.72 48.724,23.9864 C48.724,23.9096 48.7168,23.8344 48.7048,23.7616 L48.7048,23.7616 Z M34.0968,22.6576 C34.704,19.9576 37.12,17.9344 40.0008,17.9344 C42.8816,17.9344 45.2976,19.9576 45.9048,22.6576 L34.0968,22.6576 L34.0968,22.6576 Z" id="Shape" sketch:type="MSShapeGroup"></path>
                <path d="M77.9923976,27.8315358 L53.7906387,27.8315358 C53.8839699,27.1758033 53.9491409,26.5096113 53.9491409,25.8281323 C53.9491409,21.0915713 51.6054001,16.9013199 48.0258248,14.3266647 L59.2183337,14.3266647 C59.9561333,14.3266647 60.5539361,13.728862 60.5539361,12.9910623 C60.5539361,12.2532627 59.9561333,11.6554599 59.2183337,11.6554599 L41.1112664,11.6554599 L41.1112664,1.56120239 C41.1112664,0.823402755 40.5134636,0.2256 39.775664,0.2256 C39.0378644,0.2256 38.4400616,0.823402755 38.4400616,1.56120239 L38.4400616,11.6546554 L20.3329943,11.6546554 C19.5951947,11.6546554 18.9973919,12.2524581 18.9973919,12.9902578 C18.9973919,13.7280574 19.5951947,14.3258601 20.3329943,14.3258601 L31.5255032,14.3258601 C27.9459279,16.9005153 25.6021871,21.0907667 25.6021871,25.8273277 C25.6021871,26.5096113 25.6673581,27.1749988 25.7606893,27.8307313 L1.55732125,27.8307313 C0.819521618,27.8307313 0.221718863,28.428534 0.221718863,29.1663337 C0.221718863,29.9041333 0.819521618,30.501936 1.55732125,30.501936 L11.7191635,30.501936 C11.113315,31.4006516 10.7601044,32.4820068 10.7601044,33.6446245 C10.7601044,36.7535207 13.2905078,39.2831194 16.4002085,39.2831194 C19.5107138,39.2831194 22.0411171,36.7535207 22.0411171,33.6446245 C22.0411171,32.4820068 21.687102,31.4006516 21.0820581,30.501936 L26.4115943,30.501936 C28.349827,36.0229623 33.601319,40 39.7764686,40 C45.9516182,40 51.2031102,36.0237669 53.1413428,30.501936 L58.4708791,30.501936 C57.8658351,31.4006516 57.51182,32.4820068 57.51182,33.6446245 C57.51182,36.7535207 60.0422234,39.2831194 63.1527287,39.2831194 C66.2616248,39.2831194 68.7912236,36.7535207 68.7912236,33.6446245 C68.7912236,32.4820068 68.4380131,31.4006516 67.8329691,30.501936 L77.9923976,30.501936 C78.7301972,30.501936 79.328,29.9041333 79.328,29.1663337 C79.328,28.428534 78.7301972,27.8315358 77.9923976,27.8315358 L77.9923976,27.8315358 Z M16.3994039,36.6127192 C14.7628887,36.6127192 13.4313092,35.2819443 13.4313092,33.6454291 C13.4313092,32.0081093 14.7628887,30.6765298 16.3994039,30.6765298 C18.0367237,30.6765298 19.3683032,32.0081093 19.3683032,33.6454291 C19.3691078,35.2819443 18.0367237,36.6127192 16.3994039,36.6127192 L16.3994039,36.6127192 Z M39.775664,37.3287952 C33.4331618,37.3287952 28.2733919,32.1690253 28.2733919,25.8273277 C28.2733919,19.4856301 33.4331618,14.3258601 39.775664,14.3258601 C46.1181662,14.3258601 51.2779361,19.4856301 51.2779361,25.8273277 C51.2779361,32.1690253 46.1181662,37.3287952 39.775664,37.3287952 L39.775664,37.3287952 Z M63.1519241,36.6127192 C61.5146043,36.6127192 60.1830248,35.2819443 60.1830248,33.6454291 C60.1830248,32.0081093 61.5146043,30.6765298 63.1519241,30.6765298 C64.7876347,30.6765298 66.1192142,32.0081093 66.1192142,33.6454291 C66.1184096,35.2819443 64.7876347,36.6127192 63.1519241,36.6127192 L63.1519241,36.6127192 Z" id="Shape" sketch:type="MSShapeGroup"></path>
            </g>
        </g>
    </g>
</svg>