<?xml version="1.0" encoding="UTF-8" standalone="no"?>
<svg width="72px" height="53px" viewBox="0 0 72 53" version="1.1" xmlns="http://www.w3.org/2000/svg" xmlns:xlink="http://www.w3.org/1999/xlink" xmlns:sketch="http://www.bohemiancoding.com/sketch/ns">
    <!-- Generator: Sketch 3.3.2 (12043) - http://www.bohemiancoding.com/sketch -->
    <title>noun_149316_cc</title>
    <desc>Created with Sketch.</desc>
    <defs></defs>
    <g id="Page-1" stroke="none" stroke-width="1" fill="none" fill-rule="evenodd" sketch:type="MSPage">
        <g id="City-description-page" sketch:type="MSArtboardGroup" transform="translate(-23.000000, -1053.000000)" fill="#1FB6C9">
            <g id="Group" sketch:type="MSLayerGroup" transform="translate(12.000000, 648.000000)">
                <g id="noun_149316_cc" transform="translate(11.000000, 405.000000)" sketch:type="MSShapeGroup">
                    <g id="Group">
                        <path d="M70.2857143,20.1784677 L64.5214286,20.1784677 L62.2834286,6.81306452 C62.1797143,6.19501613 61.6431429,5.74195161 61.0157143,5.74195161 L10.9842857,5.74195161 C10.356,5.74195161 9.81942857,6.19501613 9.71657143,6.81306452 L7.47857143,20.1793226 L1.71428571,20.1793226 C1.00371429,20.1793226 0.428571429,20.7529194 0.428571429,21.4615806 L0.428571429,41.2929839 C0.428571429,42.0016452 1.00371429,42.5752419 1.71428571,42.5752419 L7.28142857,42.5752419 L7.28142857,51.3552903 C7.28142857,52.0639516 7.85657143,52.6375484 8.56714286,52.6375484 C9.27771429,52.6375484 9.85285714,52.0639516 9.85285714,51.3552903 L9.85285714,42.5752419 L62.148,42.5752419 L62.148,51.3552903 C62.148,52.0639516 62.7231429,52.6375484 63.4337143,52.6375484 C64.1442857,52.6375484 64.7194286,52.0639516 64.7194286,51.3552903 L64.7194286,42.5752419 L70.2857143,42.5752419 C70.9962857,42.5752419 71.5714286,42.0016452 71.5714286,41.2929839 L71.5714286,21.4607258 C71.5714286,20.7529194 70.9962857,20.1784677 70.2857143,20.1784677 L70.2857143,20.1784677 Z M12.0728571,8.30646774 L59.9262857,8.30646774 L61.914,20.1793226 L10.0851429,20.1793226 L12.0728571,8.30646774 L12.0728571,8.30646774 Z M69,40.0107258 L3,40.0107258 L3,22.7429839 L8.56714286,22.7429839 L63.4337143,22.7429839 L69,22.7429839 L69,40.0107258 L69,40.0107258 Z" id="Shape"></path>
                        <path d="M16.0757143,26.0144516 C13.1108571,26.0144516 10.698,28.4199677 10.698,31.3768548 C10.698,34.3337419 13.11,36.7392581 16.0757143,36.7392581 C19.0405714,36.7392581 21.4525714,34.3337419 21.4525714,31.3768548 C21.4525714,28.4199677 19.0405714,26.0144516 16.0757143,26.0144516 L16.0757143,26.0144516 Z M16.0757143,34.1755968 C14.5285714,34.1755968 13.2694286,32.9206935 13.2694286,31.3777097 C13.2694286,29.8347258 14.5285714,28.5798226 16.0757143,28.5798226 C17.6228571,28.5798226 18.8811429,29.8347258 18.8811429,31.3777097 C18.8811429,32.9206935 17.6228571,34.1755968 16.0757143,34.1755968 L16.0757143,34.1755968 Z" id="Shape"></path>
                        <path d="M55.9242857,26.0144516 C52.9594286,26.0144516 50.5474286,28.4199677 50.5474286,31.3768548 C50.5474286,34.3337419 52.9594286,36.7392581 55.9242857,36.7392581 C58.8891429,36.7392581 61.302,34.3337419 61.302,31.3768548 C61.302,28.4199677 58.89,26.0144516 55.9242857,26.0144516 L55.9242857,26.0144516 Z M55.9242857,34.1755968 C54.3771429,34.1755968 53.1188571,32.9206935 53.1188571,31.3777097 C53.1188571,29.8347258 54.3771429,28.5798226 55.9242857,28.5798226 C57.4714286,28.5798226 58.7305714,29.8347258 58.7305714,31.3777097 C58.7305714,32.9206935 57.4714286,34.1755968 55.9242857,34.1755968 L55.9242857,34.1755968 Z" id="Shape"></path>
                        <path d="M43.9971429,32.9694194 L28.002,32.9694194 C27.2914286,32.9694194 26.7162857,33.5430161 26.7162857,34.2516774 C26.7162857,34.9603387 27.2914286,35.5339355 28.002,35.5339355 L43.9971429,35.5339355 C44.7077143,35.5339355 45.2828571,34.9603387 45.2828571,34.2516774 C45.2828571,33.5430161 44.7077143,32.9694194 43.9971429,32.9694194 L43.9971429,32.9694194 Z" id="Shape"></path>
                        <path d="M43.9971429,27.2197742 L28.002,27.2197742 C27.2914286,27.2197742 26.7162857,27.793371 26.7162857,28.5020323 C26.7162857,29.2106935 27.2914286,29.7842903 28.002,29.7842903 L43.9971429,29.7842903 C44.7077143,29.7842903 45.2828571,29.2106935 45.2828571,28.5020323 C45.2828571,27.793371 44.7077143,27.2197742 43.9971429,27.2197742 L43.9971429,27.2197742 Z" id="Shape"></path>
                        <path d="M28.002,2.92696774 L43.9971429,2.92696774 C44.7077143,2.92696774 45.2828571,2.35337097 45.2828571,1.64470968 C45.2828571,0.936048387 44.7077143,0.362451613 43.9971429,0.362451613 L28.002,0.362451613 C27.2914286,0.362451613 26.7162857,0.936048387 26.7162857,1.64470968 C26.7162857,2.35337097 27.2922857,2.92696774 28.002,2.92696774 L28.002,2.92696774 Z" id="Shape"></path>
                    </g>
                </g>
            </g>
        </g>
    </g>
</svg>